<?xml version="1.0" standalone="no"?>
<!DOCTYPE svg PUBLIC "-//W3C//DTD SVG 20010904//EN"
 "http://www.w3.org/TR/2001/REC-SVG-20010904/DTD/svg10.dtd">
<svg version="1.0" xmlns="http://www.w3.org/2000/svg"
 width="225.000000pt" height="225.000000pt" viewBox="0 0 225.000000 225.000000"
 preserveAspectRatio="xMidYMid meet">

<g transform="translate(0.000000,225.000000) scale(0.100000,-0.100000)"
fill="#000000" stroke="none">
<path d="M1105 2068 c-50 -16 -93 -35 -96 -40 -4 -6 -21 -13 -39 -17 -31 -6
-32 -7 -14 -21 10 -9 15 -10 10 -2 -5 8 1 12 21 12 15 0 24 -4 18 -8 -5 -4
-10 -20 -9 -37 0 -16 -9 -45 -20 -64 -11 -19 -15 -31 -8 -27 7 4 12 2 12 -3 0
-6 -7 -11 -15 -11 -9 0 -12 -6 -8 -15 3 -10 0 -15 -8 -13 -9 2 -14 -6 -14 -18
0 -12 -8 -31 -18 -42 -11 -12 -16 -26 -12 -31 7 -12 -29 -64 -38 -54 -3 3 -5
-10 -3 -28 2 -19 1 -26 -1 -16 -6 23 -23 22 -23 -3 0 -13 -7 -20 -20 -20 -11
0 -20 -4 -20 -10 0 -5 -7 -10 -15 -10 -8 0 -15 -8 -15 -19 0 -15 -10 -20 -50
-25 l-50 -7 27 -29 c14 -17 28 -28 31 -25 3 2 13 0 22 -5 13 -7 16 -17 12 -32
-5 -21 -4 -22 14 -8 10 8 22 19 25 24 4 4 10 3 13 -3 4 -6 17 -11 29 -11 21 1
21 1 -3 14 -14 8 -29 15 -35 16 -14 2 -45 31 -45 42 0 15 16 9 71 -27 30 -19
148 -92 264 -161 116 -69 199 -122 185 -119 -14 4 -32 13 -40 20 -19 16 -77
49 -162 92 -68 33 -94 41 -83 24 3 -6 -12 -11 -32 -13 -21 -2 -39 -9 -39 -15
-1 -7 -2 -17 -3 -23 0 -5 -11 -10 -23 -10 -20 0 -21 -1 -3 -20 23 -25 55 -26
55 -2 0 32 11 31 42 -3 34 -39 30 -59 -8 -45 -14 6 -23 6 -20 1 4 -5 2 -11 -2
-13 -5 -1 -7 -20 -4 -40 3 -28 8 -35 20 -31 9 4 13 2 9 -4 -4 -7 11 -13 40
-18 26 -4 60 -13 75 -21 15 -8 38 -14 52 -14 14 0 30 -8 35 -18 7 -14 18 -17
46 -14 25 3 40 0 46 -9 13 -21 11 -67 -4 -76 -24 -14 -27 -52 -6 -63 11 -6 19
-21 19 -35 0 -49 -73 -90 -118 -66 -15 8 -23 7 -32 -4 -7 -9 -10 -18 -7 -21 3
-4 -5 -18 -18 -32 -21 -22 -27 -24 -52 -14 -30 12 -113 32 -113 27 0 -8 73
-45 89 -45 16 0 66 -38 59 -45 -4 -5 -123 33 -164 51 -27 12 -44 31 -44 50 0
2 8 4 17 4 10 0 -3 11 -29 25 -60 32 -70 31 -90 -3 -23 -39 -8 -64 32 -52 18
5 32 5 36 -1 3 -5 23 -17 45 -26 21 -8 39 -20 39 -27 1 -6 14 -27 30 -46 17
-19 30 -42 30 -52 0 -10 5 -18 11 -18 5 0 7 4 4 10 -3 6 -2 10 3 10 5 0 15
-13 22 -30 14 -33 27 -38 36 -15 5 12 10 13 20 5 20 -17 5 -40 -26 -40 -22 0
-29 5 -32 22 -3 26 -38 38 -38 14 0 -9 5 -16 10 -16 6 0 10 -4 10 -10 0 -15
-46 -12 -87 5 -40 17 -93 20 -93 6 0 -6 5 -13 10 -16 13 -8 40 -72 40 -94 0
-12 -2 -13 -9 -3 -7 11 -11 11 -24 -2 -50 -50 -135 10 -183 129 -7 16 -9 11
-12 -22 -2 -24 -7 -43 -13 -43 -5 0 -9 -9 -9 -21 0 -11 4 -18 8 -15 8 5 6 -99
-4 -191 -4 -37 -11 -57 -25 -67 -13 -9 -16 -16 -10 -21 6 -3 11 -3 11 1 0 4 6
0 13 -10 12 -16 14 -16 26 -3 11 14 17 10 52 -26 21 -23 39 -52 39 -64 0 -12
5 -25 10 -28 6 -3 10 -9 10 -13 0 -4 -172 -8 -382 -10 -210 -1 -384 -4 -386
-7 -3 -3 503 -4 1124 -3 760 1 1049 5 884 10 -135 4 -264 7 -287 8 -43 0 -59
15 -25 23 15 3 15 5 -3 11 -11 4 -34 14 -50 22 -17 8 -39 12 -48 8 -10 -3 -30
-1 -46 5 -21 9 -28 19 -28 42 0 16 5 29 11 29 12 0 -28 26 -55 36 -9 3 -22 17
-29 30 -8 13 -21 24 -31 24 -10 0 -21 5 -25 11 -4 8 -9 7 -14 -2 -7 -10 -11
-9 -24 3 -8 9 -13 18 -10 21 3 3 -26 27 -65 54 -39 26 -71 50 -71 53 0 5 75
53 143 92 16 9 65 47 109 85 69 58 85 79 119 149 21 44 39 87 40 95 1 30 55
124 72 127 11 2 33 -11 55 -32 19 -20 59 -48 88 -62 29 -14 63 -35 75 -45 25
-21 39 -24 39 -8 0 10 -150 183 -173 200 -21 16 21 108 88 194 81 104 113 193
100 284 -11 81 -123 255 -253 395 -44 47 -178 136 -205 136 -7 0 -17 4 -22 9
-11 10 -87 32 -190 57 -38 9 -77 20 -85 24 -10 5 -49 -3 -105 -22z m479 -241
c16 -12 15 -15 -6 -54 -12 -23 -20 -45 -16 -48 9 -10 80 17 85 32 3 7 12 13
19 13 17 0 64 -29 64 -39 0 -3 -27 -14 -60 -25 -33 -10 -63 -23 -66 -28 -4 -5
2 -25 12 -43 l18 -34 27 20 c37 26 68 24 101 -8 31 -29 34 -49 16 -88 -16 -35
-32 -26 -38 21 -10 78 -73 45 -99 -53 -12 -42 -7 -87 12 -111 13 -16 33 0 41
33 4 14 14 25 22 25 13 0 15 -7 11 -36 -11 -69 -65 -96 -107 -54 -22 22 -24
29 -24 155 -1 78 -4 94 -25 123 -20 29 -26 32 -37 20 -8 -8 -20 -37 -26 -66
-11 -45 -15 -51 -33 -46 -43 13 -48 28 -23 66 13 19 39 81 57 136 19 56 39
102 46 102 6 0 19 -6 29 -13z m-644 -71 c0 -3 -4 -8 -10 -11 -5 -3 -10 -1 -10
4 0 6 5 11 10 11 6 0 10 -2 10 -4z m110 -497 c0 -18 -35 -5 -38 14 -3 16 -1
17 17 7 12 -6 21 -15 21 -21z m87 -53 c0 -8 -8 -11 -20 -8 -14 4 -16 7 -5 13
19 12 25 11 25 -5z m298 -68 c6 -6 -17 4 -50 21 -33 18 -64 38 -70 43 -12 14
106 -50 120 -64z m89 26 c5 -14 4 -15 -9 -4 -17 14 -19 20 -6 20 5 0 12 -7 15
-16z m-204 -39 c-10 -28 -35 -30 -65 -7 -29 23 -19 31 36 28 32 -1 35 -3 29
-21z m-120 -425 c0 -5 -4 -10 -10 -10 -5 0 -10 5 -10 10 0 6 5 10 10 10 6 0
10 -4 10 -10z m-243 -322 c-3 -7 -5 -2 -5 12 0 14 2 19 5 13 2 -7 2 -19 0 -25z
m205 -50 c-7 -7 -12 -8 -12 -2 0 14 12 26 19 19 2 -3 -1 -11 -7 -17z m-2 -283
c-4 -37 -5 -36 -10 20 -3 33 -3 94 0 135 l5 75 5 -95 c3 -52 3 -113 0 -135z
m-49 44 c-6 -18 -11 -42 -11 -55 0 -19 -5 -23 -30 -22 l-31 1 24 26 c13 14 30
41 37 59 16 41 26 34 11 -9z m-186 -46 c0 -22 -5 -29 -25 -31 -14 -1 -32 2
-40 7 -12 9 -12 13 5 30 11 11 29 20 40 20 16 1 21 -5 20 -26z m502 -17 c-5
-15 -47 -20 -60 -7 -7 7 -3 13 14 19 28 11 52 5 46 -12z m106 -3 c-18 -2 -48
-2 -65 0 -18 2 -4 4 32 4 36 0 50 -2 33 -4z"/>
<path d="M635 1500 c-3 -5 -2 -10 4 -10 5 0 13 5 16 10 3 6 2 10 -4 10 -5 0
-13 -4 -16 -10z"/>
<path d="M312 1420 c-12 -33 -1 -122 20 -175 31 -78 123 -171 186 -190 36 -10
28 25 -13 58 -26 21 -34 34 -30 47 8 24 -15 60 -37 60 -22 0 -53 60 -62 119
-7 48 -33 111 -46 111 -4 0 -13 -13 -18 -30z"/>
<path d="M892 1424 c10 -10 20 -15 24 -12 3 4 -5 12 -18 18 -22 12 -22 12 -6
-6z"/>
<path d="M633 1401 c1 -15 4 -17 14 -9 7 5 10 14 7 19 -10 16 -23 9 -21 -10z"/>
<path d="M92 1383 c-7 -7 -9 -13 -4 -13 17 0 65 -55 83 -95 23 -50 24 -85 3
-85 -10 0 -14 -6 -10 -17 17 -59 18 -74 5 -72 -22 4 -67 -12 -80 -27 -15 -18
-5 -18 29 0 28 14 82 11 82 -5 0 -15 -40 -30 -81 -31 l-39 0 -1 -157 c-1 -112
-4 -142 -9 -106 -4 28 -15 70 -24 95 -20 56 -20 99 -1 127 13 19 13 22 -10 37
-13 9 -27 16 -30 16 -3 0 -5 -117 -5 -260 0 -224 2 -260 15 -260 8 0 15 9 15
20 0 11 4 20 9 20 5 0 13 15 16 32 13 57 20 55 25 -7 l5 -60 32 47 c68 97 66
245 -3 348 -34 49 -31 60 15 60 122 0 194 176 126 310 -25 50 -49 70 -82 70
-10 0 -29 6 -43 13 -22 11 -28 11 -38 0z"/>
<path d="M560 1345 c0 -8 5 -15 10 -15 6 0 10 7 10 15 0 8 -4 15 -10 15 -5 0
-10 -7 -10 -15z"/>
<path d="M590 1260 c0 -11 5 -20 10 -20 6 0 10 9 10 20 0 11 -4 20 -10 20 -5
0 -10 -9 -10 -20z"/>
<path d="M591 1153 c-7 -8 -11 -16 -8 -19 2 -2 10 2 17 11 17 20 9 27 -9 8z"/>
<path d="M80 1105 c0 -8 5 -15 10 -15 6 0 10 4 10 9 0 5 8 12 18 14 10 3 6 5
-10 6 -19 1 -28 -4 -28 -14z"/>
<path d="M975 1091 c-3 -6 3 -15 14 -20 15 -8 23 -7 34 4 8 8 18 11 22 7 5 -4
5 -1 1 6 -8 14 -62 16 -71 3z"/>
<path d="M1266 985 c-3 -8 -1 -15 4 -15 6 0 10 7 10 15 0 8 -2 15 -4 15 -2 0
-6 -7 -10 -15z"/>
<path d="M457 934 c-50 -50 -82 -108 -71 -126 4 -6 3 -8 -3 -5 -15 9 -21 -11
-28 -87 -4 -39 -3 -66 4 -70 19 -12 57 42 75 108 10 37 26 72 35 79 35 26 70
147 42 147 -5 0 -29 -21 -54 -46z"/>
<path d="M985 971 c-11 -5 -25 -7 -30 -4 -15 5 -116 -32 -108 -40 20 -21 193
11 193 36 0 4 5 5 10 2 6 -3 10 -1 10 4 0 13 -45 13 -75 2z"/>
<path d="M1050 885 c0 -13 24 -55 32 -55 5 0 6 -4 3 -10 -4 -6 6 -10 22 -9 15
0 22 3 15 6 -6 2 -10 9 -7 14 4 5 17 2 31 -7 26 -18 32 -8 11 20 -8 10 -28 19
-47 20 -18 1 -35 7 -38 14 -3 11 -22 18 -22 7z"/>
<path d="M1088 793 c7 -3 16 -2 19 1 4 3 -2 6 -13 5 -11 0 -14 -3 -6 -6z"/>
<path d="M609 126 c27 -29 33 -32 25 -13 -2 7 -14 19 -27 26 -21 13 -21 12 2
-13z"/>
</g>
</svg>
